<?xml version="1.0" standalone="no"?><!DOCTYPE svg PUBLIC "-//W3C//DTD SVG 1.1//EN" "http://www.w3.org/Graphics/SVG/1.1/DTD/svg11.dtd"><svg t="1551236825686" class="icon" style="" viewBox="0 0 1024 1024" version="1.1" xmlns="http://www.w3.org/2000/svg" p-id="8308" xmlns:xlink="http://www.w3.org/1999/xlink" width="200" height="200"><defs><style type="text/css"></style></defs><path d="M971.252657 288.653061c-10.333664-7.881449-25.102261-5.897555-32.984887 4.437286-0.478912 0.628351-48.816032 63.544622-125.978452 126.107888-45.062401 36.534951-90.803751 65.588527-135.95205 86.352344-55.560802 25.551756-110.320279 38.508255-162.758154 38.508255-52.264902 0-106.840816-12.870601-162.210995-38.256444-45.041221-20.649678-90.682552-49.558522-135.656701-85.922853-77.373047-62.560912-126.343225-126.164368-126.82096-126.78919-7.882625-10.333664-22.651223-12.319912-32.984887-4.437286-10.333664 7.882625-12.319912 22.651223-4.437286 32.984887 2.095679 2.747564 52.270785 68.05251 133.758705 134.119949a823.217209 823.217209 0 0 0 28.434639 22.042875l-85.672219 148.389631c-6.498842 11.25501-2.642839 25.649421 8.613348 32.147086a23.431366 23.431366 0 0 0 11.744512 3.15705c8.13326 0 16.044126-4.220776 20.402574-11.770399l83.718919-145.006655c26.19658 16.958411 52.495532 31.550506 78.685052 43.595072 24.195036 11.127928 48.330061 20.096635 72.301526 26.902593L360.135613 736.888399c-3.364148 12.555249 4.086634 25.459974 16.640706 28.822945 2.040375 0.547159 4.088987 0.808384 6.105828 0.808384 10.390145 0 19.900129-6.935393 22.717118-17.447913l43.793932-163.440633c21.611031 3.650083 43.032616 5.495128 64.185917 5.495128 20.447288 0 41.145211-1.715609 62.023166-5.126825l43.695091 163.073506c2.818165 10.514874 12.325795 17.447913 22.717117 17.447914 2.015665 0 4.065453-0.261224 6.105828-0.808384 12.554072-3.362971 20.004854-16.267696 16.640706-28.822946l-43.159698-161.076668c24.662181-6.874205 49.500864-16.047656 74.403089-27.50035 25.640007-11.791579 51.38474-26.027137 77.036514-42.531347l83.104688 143.94293c4.358448 7.5508 12.269314 11.770399 20.402574 11.770399a23.416069 23.416069 0 0 0 11.744512-3.15705c11.25501-6.497665 15.113366-20.892076 8.613348-32.147086l-84.999154-147.223534a822.235852 822.235852 0 0 0 30.025519-23.207796c81.486744-66.067439 131.663026-131.372385 133.758706-134.119948 7.881449-10.336018 5.894025-25.103438-4.438463-32.986064z" p-id="8309"></path></svg>