<?xml version="1.0" standalone="no"?><!DOCTYPE svg PUBLIC "-//W3C//DTD SVG 1.1//EN" "http://www.w3.org/Graphics/SVG/1.1/DTD/svg11.dtd"><svg t="1545724669143" class="icon" style="" viewBox="0 0 1024 1024" version="1.1" xmlns="http://www.w3.org/2000/svg" p-id="8054" xmlns:xlink="http://www.w3.org/1999/xlink" width="200" height="200"><defs><style type="text/css"></style></defs><path d="M388.430226 164.07016m-52.299025 0a52.299026 52.299026 0 1 0 104.598051 0 52.299026 52.299026 0 1 0-104.598051 0Z" p-id="8055"></path><path d="M868.127818 754.832874L749.487185 538.737856a47.067476 47.067476 0 0 0-41.258172-24.416253H472.23975l-7.650818-90.613127h180.486119c12.997683 0 23.533738-10.536054 23.533737-23.533738s-10.536054-23.533738-23.533737-23.533738H460.61526l-7.615517-90.188343c-2.186284-25.902409-24.962236-45.124766-50.859938-42.940835-25.902409 2.187461-45.128296 24.958706-42.940835 50.861114l22.8795 270.976871c2.058025 24.372716 22.441772 43.107924 46.900386 43.107924h251.395625l105.235815 191.678765c8.565104 15.600515 24.678654 24.425666 41.30171 24.425666a46.867439 46.867439 0 0 0 22.608862-5.81754c22.786542-12.511712 31.116308-41.126384 18.60695-63.911748z" p-id="8056"></path><path d="M444.321677 923.233241c-71.464902 0-138.65137-27.829822-189.184188-78.363816S176.773672 727.148961 176.773672 655.68406c0-47.426365 12.578783-94.027873 36.376098-134.768303 23.079537-39.510792 56.119728-72.673359 95.548152-95.901159 11.202059-6.597683 25.625887-2.866409 32.222394 8.330943 6.597683 11.198529 2.867586 25.62471-8.330943 32.222394-32.516566 19.155286-59.763927 46.503843-78.796838 79.088656-19.593013 33.542637-29.950211 71.935576-29.950211 111.027469 0 121.572936 98.906417 220.48053 220.480529 220.480529 50.23041 0 97.540283-16.448906 136.812209-47.569921 38.123479-30.209083 65.532046-72.676889 77.180069-119.578452 3.132341-12.61526 15.898217-20.303732 28.511124-17.167862 12.614083 3.132341 20.300202 15.89704 17.167862 28.511124-14.141423 56.946939-47.391065 108.487001-93.626623 145.124324-47.678176 37.781063-105.094613 57.749439-166.045817 57.749439z" p-id="8057"></path></svg>