<?xml version="1.0" standalone="no"?><!DOCTYPE svg PUBLIC "-//W3C//DTD SVG 1.1//EN" "http://www.w3.org/Graphics/SVG/1.1/DTD/svg11.dtd"><svg t="1546507475397" class="icon" style="" viewBox="0 0 1024 1024" version="1.1" xmlns="http://www.w3.org/2000/svg" p-id="1623" xmlns:xlink="http://www.w3.org/1999/xlink" width="200" height="200"><defs><style type="text/css"></style></defs><path d="M791.582118 505.93631366c-5.150118-8.914824-14.546824-15.179294-25.750588-15.179294-11.173647 0-20.540235 6.234353-25.720471 15.058824-2.680471-0.692706-4.336941-0.060235-4.336941 4.487529l0 293.044706c0 21.534118-17.980235 39.062588-40.026353 39.062588L235.580235 842.41066666c-22.046118 0-40.026353-17.528471-40.026353-39.062588 0 0 0-507.934118 0-527.480471 0-21.564235 17.950118-39.062588 40.026353-39.062588L595.727059 236.80501966c2.288941 0 3.463529-0.451765 4.156235-1.144471 1.957647 0.391529 3.794824 1.144471 5.842824 1.144471 16.564706 0 30.027294-13.131294 30.027294-29.304471 0-16.173176-13.462588-29.304471-30.027294-29.304471-2.409412 0-4.517647 0.813176-6.806588 1.325176C598.196706 178.70807866 597.142588 178.19607866 595.727059 178.19607866L215.582118 178.19607866C171.429647 178.19607866 135.529412 213.25301966 135.529412 256.35137266l0 566.543059c0 43.098353 35.900235 78.155294 80.052706 78.155294l500.224 0c44.152471 0 80.022588-35.056941 80.022588-78.155294L795.828706 510.30337266C795.828706 507.77349066 794.142118 506.50854866 791.582118 505.93631366zM848.203294 187.65301966c-12.438588-10.691765-31.412706-9.517176-42.375529 2.620235L342.949647 703.38760766c-10.962824 12.137412-9.758118 30.659765 2.680471 41.351529 12.438588 10.691765 31.412706 9.517176 42.375529-2.620235l462.908235-513.084235C861.816471 216.89725466 860.641882 198.34478466 848.203294 187.65301966z" p-id="1624"></path></svg>