<?xml version="1.0" standalone="no"?><!DOCTYPE svg PUBLIC "-//W3C//DTD SVG 1.1//EN" "http://www.w3.org/Graphics/SVG/1.1/DTD/svg11.dtd"><svg t="1545724429877" class="icon" style="" viewBox="0 0 1024 1024" version="1.1" xmlns="http://www.w3.org/2000/svg" p-id="8054" xmlns:xlink="http://www.w3.org/1999/xlink" width="200" height="200"><defs><style type="text/css"></style></defs><path d="M798.928038 770.261592v-72.975767h-0.030594c-1.283765-60.413458-50.822284-109.16595-111.53815-109.16595s-110.255562 48.752491-111.539327 109.16595h-0.030594v138.284243c0 35.567715-28.935907 64.502445-64.502445 64.502445-35.567715 0-64.502445-28.935907-64.502446-64.502445V660.857952h6.210554c8.618055 0 15.605222-6.987167 15.605221-15.605222v-11.09498c56.484501-7.932046 101.045633-30.066703 144.250046-89.57529l0.921346-1.36731c43.024379-68.947968 61.120647-202.616069 56.758669-299.022026l-0.02824-0.517742c-3.002905-44.574076-18.345725-77.661335-45.603678-98.345137-31.536385-23.927928-69.271557-22.848906-84.96856-21.08623-7.660232-11.05262-20.428461-18.296304-34.893473-18.296304-23.436073 0-42.434859 18.998787-42.434859 42.434859s18.998787 42.434859 42.434859 42.43486c15.713477 0 29.421879-8.547454 36.757345-21.240375l0.384777 1.845045c0.307115-0.063541 31.42813-5.929325 54.269976 11.403272 15.88645 12.053981 24.995183 33.504983 27.075565 63.757603 4.559662 101.761059-16.581872 217.964773-49.25729 271.029821-32.481265 44.487001-63.269277 62.011399-105.665306 69.035044v-22.394705c0-8.618055-6.987167-15.605222-15.605221-15.605222h-60.814709c-8.618055 0-15.605222 6.987167-15.605222 15.605222v22.394705c-42.396029-7.024821-73.185218-24.549219-105.666482-69.03622-32.673065-53.069755-53.816952-169.272293-49.258467-271.027469 2.068616-30.07847 11.084391-51.456518 26.797867-63.545798 22.793602-17.534988 54.379408-11.646847 54.695937-11.585659l-0.148263-0.030594 0.3836-1.845045c7.335466 12.692921 21.043868 21.240375 36.757345 21.240375 23.436073 0 42.434859-18.998787 42.43486-42.43486S363.573892 105.948888 340.137819 105.948888c-14.465012 0-27.233241 7.243685-34.893473 18.295127-15.697003-1.763854-53.432175-2.842876-84.969737 21.088583-27.257952 20.682625-42.600772 53.769884-45.6025 98.34396l-0.029417 0.517742c-4.361978 96.405957 13.734289 230.074058 56.759845 299.022027l0.921346 1.36731c43.204413 59.508586 87.766722 81.643243 144.250046 89.575289v11.094981c0 8.618055 6.987167 15.605222 15.605222 15.605222h7.535502v178.336311h0.064718c1.92153 59.847472 51.198823 107.944549 111.505203 107.944549s109.583673-48.097077 111.505204-107.944549h0.064717V699.689796c0-35.567715 28.935907-64.502445 64.502446-64.502445s64.501269 28.935907 64.501268 64.502445v70.571796c-32.315352 10.051259-55.844383 40.236808-55.844383 75.81629 0 43.769222 35.608899 79.378121 79.378121 79.378121s79.378121-35.608899 79.378121-79.378121c0.002353-35.578305-23.526678-65.763854-55.84203-75.81629z m-23.533738 108.126935c-17.816216 0-32.310645-14.494429-32.310645-32.310645s14.494429-32.310645 32.310645-32.310645 32.310645 14.494429 32.310646 32.310645-14.495606 32.310645-32.310646 32.310645z" p-id="8055"></path></svg>