<?xml version="1.0" standalone="no"?><!DOCTYPE svg PUBLIC "-//W3C//DTD SVG 1.1//EN" "http://www.w3.org/Graphics/SVG/1.1/DTD/svg11.dtd"><svg t="1545725151831" class="icon" style="" viewBox="0 0 1024 1024" version="1.1" xmlns="http://www.w3.org/2000/svg" p-id="1467" xmlns:xlink="http://www.w3.org/1999/xlink" width="200" height="200"><defs><style type="text/css"></style></defs><path d="M874.45259942 485.43017407c-10.70976077 0-19.39120258 8.68144098-19.39120257 19.39120258v36.3197222H601.53596826v-50.38028284c0-49.77139939-40.49173965-90.26313821-90.26313821-90.26313904H169.61826521V297.4344063c0-10.70879178-8.68144098-19.39120258-19.39120258-19.39120257s-19.39120258 8.68241079-19.39120258 19.39120258v427.4305796c0 10.70976077 8.68144098 19.39120258 19.39120258 19.39120174s19.39120258-8.68144098 19.39120258-19.39120174v-50.41421824h393.5638438c10.70976077 0 19.39120258-8.68144098 19.39120258-19.39120258s-8.68144098-19.39120258-19.39120258-19.39120175H169.61826521v-55.74485934h685.44313164v55.74485934H707.984944c-10.70976077 0-19.39120258 8.68144098-19.39120258 19.39120175s8.68144098 19.39120258 19.39120258 19.39120258h147.07645285v50.41421824c0 10.70976077 8.68144098 19.39120258 19.39120258 19.39120174s19.39120258-8.68144098 19.39120257-19.39120174V504.82137664c0-10.70976077-8.68144098-19.39120258-19.39120257-19.39120257zM169.61826521 439.28008213H511.27283005c28.38581158 0 51.48073388 23.09395249 51.48073389 51.48073388v50.38028284H169.61826521V439.28008213z" p-id="1468"></path></svg>