<?xml version="1.0" standalone="no"?><!DOCTYPE svg PUBLIC "-//W3C//DTD SVG 1.1//EN" "http://www.w3.org/Graphics/SVG/1.1/DTD/svg11.dtd"><svg t="1551236865987" class="icon" style="" viewBox="0 0 1024 1024" version="1.1" xmlns="http://www.w3.org/2000/svg" p-id="8417" xmlns:xlink="http://www.w3.org/1999/xlink" width="200" height="200"><defs><style type="text/css"></style></defs><path d="M513.577937 797.288913c-59.275602 0-120.65159-14.403824-182.424122-42.813752-48.717191-22.405295-97.814451-53.545137-145.928001-92.553484C103.73907 595.853061 53.563964 530.549292 51.468285 527.801728a23.533738 23.533738 0 0 1 0-28.5476c2.095679-2.747564 52.270785-68.05251 133.757529-134.119949 48.11355-39.009524 97.210811-70.149366 145.928001-92.554661 61.772532-28.408752 123.14852-42.813753 182.424122-42.813752s120.65159 14.405001 182.424122 42.813752c48.717191 22.405295 97.815628 53.54396 145.929178 92.554661 81.486744 66.067439 131.663026 131.372385 133.758706 134.119949a23.533738 23.533738 0 0 1 0 28.5476c-2.095679 2.747564-52.271962 68.051333-133.758706 134.119949-48.11355 39.008347-97.210811 70.148189-145.929178 92.553484-61.772532 28.409928-123.14852 42.813753-182.424122 42.813752zM100.536128 513.517926c18.888178 22.347637 59.74157 67.70421 115.174113 112.524214 70.062291 56.650414 178.612833 124.179298 297.867696 124.179298 119.604339 0 228.456113-67.89954 298.710204-124.8606 55.153668-44.718809 95.583453-89.620004 114.332782-111.824085-18.888178-22.348814-59.74157-67.70421-115.17529-112.524214-70.063468-56.650414-178.61401-124.179298-297.868873-124.179298-119.604339 0-228.454937 67.89954-298.709027 124.8606-55.153668 44.717632-95.582276 89.620004-114.331605 111.824085z" p-id="8418"></path><path d="M513.577937 673.95683c-88.460967 0-160.429491-71.968524-160.429491-160.42949s71.968524-160.429491 160.429491-160.429491c88.462144 0 160.430667 71.968524 160.430668 160.429491s-71.968524 160.429491-160.430668 160.42949z m0-273.791505c-62.507961 0-113.362015 50.854054-113.362015 113.362015s50.854054 113.362015 113.362015 113.362015 113.363192-50.854054 113.363192-113.362015-50.855231-113.362015-113.363192-113.362015z" p-id="8419"></path></svg>