<?xml version="1.0" standalone="no"?><!DOCTYPE svg PUBLIC "-//W3C//DTD SVG 1.1//EN" "http://www.w3.org/Graphics/SVG/1.1/DTD/svg11.dtd"><svg t="1545733656618" class="icon" style="" viewBox="0 0 1024 1024" version="1.1" xmlns="http://www.w3.org/2000/svg" p-id="10015" xmlns:xlink="http://www.w3.org/1999/xlink" width="200" height="200"><defs><style type="text/css"></style></defs><path d="M847.384004 530.143335L520.666299 857.743556c-21.363927 21.363927-46.888619 35.89954-76.572899 43.611546a225.827395 225.827395 0 0 0 32.048244-52.530833c10.69373-5.941092 19.295312-12.474058 25.811803-19.598897l170.034786-170.034785-112.180621-112.180622L723.605957 384.094135c4.746755-4.746755 7.123662-10.388969 7.123662-16.921934s-2.376908-12.176356-7.123662-16.921934c-2.959368-2.960544-6.523552-5.04328-10.680787-6.237618-4.159588-1.195514-8.319176-1.195514-12.479941 0-4.159588 1.195514-7.719066 3.27825-10.68314 6.237618L525.96492 513.16492l-32.048244-32.048244v-70.330576l116.627321-116.627321c32.643648-32.642471 72.108549-48.969002 118.392352-48.969001 46.280272 0 85.743997 16.326531 118.388821 48.969001 21.368634 21.365104 35.90307 46.446185 43.615076 75.23383 7.712006 28.792352 7.712006 57.428204 0 85.918147-7.712006 28.482883-22.246442 53.413348-43.615076 74.777275l0.058834 0.055304z m-353.40614 83.665968v-67.657143l32.043537-32.929582 33.843868 33.843868-65.887405 66.742857zM294.565913 910.244972c-46.296746 0-85.760471-16.46538-118.387645-49.397316-32.625997-32.930759-48.952528-72.252105-48.970178-117.966391V279.970289c0-46.296746 16.321824-85.760471 48.970178-118.387645 32.643648-32.625997 72.108549-48.952528 118.387645-48.970178 52.226071 0 94.958632 20.177827 128.19533 60.532303 26.109505 30.862144 39.168377 66.471042 39.168376 106.82552v462.910976c0 45.693105-16.321824 85.019158-48.970178 117.966391-32.644824 32.94841-72.109726 49.413789-118.393528 49.397316z m134.43177-623.149844c0-36.199596-13.353043-67.210002-40.055598-93.038279-26.697849-25.828277-58.303659-38.733002-94.802133-38.716529-36.499651 0.022357-68.252546 12.928259-95.259864 38.716529-27.006141 25.789447-40.507446 56.803383-40.507446 93.038279v240.371244h64.091782v231.455489c0 6.532966 2.373377 12.02221 7.124839 16.464203 4.745578 4.44317 10.388969 6.668285 16.917227 6.668284 6.532966 0 12.175179-2.225115 16.921934-6.668284 4.751462-4.441993 7.123662-9.931237 7.123663-16.464203V527.466372h158.46913V287.095128h-0.023534z m-182.514727-15.12631c6.532966 0 12.170473 2.373377 16.921935 7.118955 4.745578 4.751462 7.118956 10.388969 7.118955 16.923111v231.455488H222.44089V296.010884c0-4.160765 1.035484-8.016768 3.1041-11.566832 2.068616-3.551241 5.042103-6.520022 8.915756-8.915756 3.876007-2.389851 7.879095-3.580658 12.02221-3.559478z m0 0" p-id="10016"></path></svg>