<?xml version="1.0" standalone="no"?><!DOCTYPE svg PUBLIC "-//W3C//DTD SVG 1.1//EN" "http://www.w3.org/Graphics/SVG/1.1/DTD/svg11.dtd"><svg t="1545733747908" class="icon" style="" viewBox="0 0 1024 1024" version="1.1" xmlns="http://www.w3.org/2000/svg" p-id="10233" xmlns:xlink="http://www.w3.org/1999/xlink" width="200" height="200"><defs><style type="text/css"></style></defs><path d="M513.289649 304.214745H338.874058c-12.997683 0-23.533738-10.536054-23.533738-23.533737s10.536054-23.533738 23.533738-23.533738h174.415591c12.997683 0 23.533738 10.536054 23.533738 23.533738s-10.536054 23.533738-23.533738 23.533737zM483.925427 575.041H338.874058c-12.997683 0-23.533738-10.536054-23.533738-23.533738s10.536054-23.533738 23.533738-23.533737h145.051369c12.997683 0 23.533738 10.536054 23.533738 23.533737s-10.536054 23.533738-23.533738 23.533738zM574.001986 439.627873H338.874058c-12.997683 0-23.533738-10.536054-23.533738-23.533738s10.536054-23.533738 23.533738-23.533738h235.129104c12.997683 0 23.533738 10.536054 23.533738 23.533738s-10.537231 23.533738-23.534914 23.533738z" p-id="10234"></path><path d="M591.159257 731.726273c-3.48417 4.323148-60.886486 36.557308-63.670527 34.313367l-3.333554-2.686377c-2.784041-2.242765 16.850156-64.915462 20.334326-69.23861l331.205589-410.973193c3.48417-4.323148 8.565104-6.00934 11.347968-3.766575l36.590256 29.487774c2.784041 2.242765 2.215701 7.566097-1.268469 11.889244L591.159257 731.726273z" p-id="10235"></path><path d="M751.561684 913.109027H274.482221c-50.710498 0-91.966317-41.256996-91.966317-91.966317v-618.866703c0-50.710498 41.255819-91.966317 91.966317-91.966318H751.561684c50.710498 0 91.966317 41.255819 91.966317 91.966318v38.580033c0 12.997683-10.536054 23.533738-23.533737 23.533738s-23.533738-10.536054-23.533738-23.533738v-38.580033c0-24.757492-20.14135-44.898842-44.898842-44.898842H274.482221c-24.757492 0-44.898842 20.14135-44.898842 44.898842v618.866703c0 24.757492 20.14135 44.898842 44.898842 44.898842H751.561684c24.757492 0 44.898842-20.14135 44.898842-44.898842v-140.331679c0-12.997683 10.536054-23.533738 23.533738-23.533737s23.533738 10.536054 23.533737 23.533737v140.331679c0 50.709322-41.255819 91.966317-91.966317 91.966317z" p-id="10236"></path></svg>