<?xml version="1.0" standalone="no"?><!DOCTYPE svg PUBLIC "-//W3C//DTD SVG 1.1//EN" "http://www.w3.org/Graphics/SVG/1.1/DTD/svg11.dtd"><svg t="1545789221286" class="icon" style="" viewBox="0 0 1024 1024" version="1.1" xmlns="http://www.w3.org/2000/svg" p-id="6589" xmlns:xlink="http://www.w3.org/1999/xlink" width="200" height="200"><defs><style type="text/css"></style></defs><path d="M305.063137 319.465784c-12.997683 0-23.533738-10.536054-23.533738-23.533738v-138.849053c0-12.997683 10.536054-23.533738 23.533738-23.533738s23.533738 10.536054 23.533737 23.533738v138.849053c0 12.997683-10.536054 23.533738-23.533737 23.533738zM718.663872 319.465784c-12.997683 0-23.533738-10.536054-23.533738-23.533738v-138.849053c0-12.997683 10.536054-23.533738 23.533738-23.533738s23.533738 10.536054 23.533738 23.533738v138.849053c0 12.997683-10.536054 23.533738-23.533738 23.533738zM400.453613 581.959919h-156.499357c-12.997683 0-23.533738-10.536054-23.533738-23.533738s10.536054-23.533738 23.533738-23.533738h156.499357c12.997683 0 23.533738 10.536054 23.533738 23.533738s-10.536054 23.533738-23.533738 23.533738zM400.453613 718.54738h-156.499357c-12.997683 0-23.533738-10.536054-23.533738-23.533738s10.536054-23.533738 23.533738-23.533738h156.499357c12.997683 0 23.533738 10.536054 23.533738 23.533738s-10.536054 23.533738-23.533738 23.533738z" p-id="6590"></path><path d="M484.952675 699.108513c0-119.425483 96.814267-216.23975 216.23975-216.23975s216.23975 96.814267 216.23975 216.23975-96.814267 216.23975-216.23975 216.23975-216.23975-96.814267-216.23975-216.23975z m319.349292 75.969259c7.724949-10.45251 5.515131-25.18816-4.937378-32.914286l-74.638426-55.164258v-110.272036c0-12.997683-10.536054-23.533738-23.533738-23.533737s-23.533738 10.536054-23.533738 23.533737v134.012871l93.728995 69.275087a23.427836 23.427836 0 0 0 13.969626 4.609082c7.211914 0.001177 14.329693-3.301783 18.944659-9.54646z" p-id="6591"></path><path d="M856.326825 202.973782h-67.06174v92.958264c0 38.991874-31.60934 70.601213-70.601213 70.601214s-70.601213-31.60934-70.601213-70.601214v-92.958264H375.66435v92.958264c0 38.991874-31.60934 70.601213-70.601213 70.601214s-70.601213-31.60934-70.601214-70.601214v-92.958264h-67.061739c-31.368119 0-56.889281 25.519985-56.889281 56.888104v559.287516c0 31.368119 25.519985 56.889281 56.889281 56.889282H442.434271c12.997683 0 23.533738-10.536054 23.533738-23.533738s-10.536054-23.533738-23.533738-23.533738H167.400184c-5.41629 0-9.821805-4.405516-9.821806-9.821806V435.364736H866.147454V474.204817c0 12.997683 10.536054 23.533738 23.533737 23.533738s23.533738-10.536054 23.533738-23.533738V259.861886c0.001177-31.368119-25.519985-56.888104-56.888104-56.888104z" p-id="6592"></path></svg>