terrible<?xml version="1.0" standalone="no"?><!DOCTYPE svg PUBLIC "-//W3C//DTD SVG 1.1//EN" "http://www.w3.org/Graphics/SVG/1.1/DTD/svg11.dtd"><svg t="1545724762690" class="icon" style="" viewBox="0 0 1024 1024" version="1.1" xmlns="http://www.w3.org/2000/svg" p-id="15597" xmlns:xlink="http://www.w3.org/1999/xlink" width="200" height="200"><defs><style type="text/css"></style></defs><path d="M518.235264 429.490715c52.502592 0 95.063357 42.559588 95.063357 95.059827 0.00353 52.502592-42.557235 95.065711-95.059827 95.065711-52.497886 0.00353-95.063357-42.552528-95.066887-95.05512 0.008237-52.497886 42.565472-95.053944 95.063357-95.070418z m103.210737-116.249605a234.045376 234.045376 0 0 0-103.210737-23.802022 245.221548 245.221548 0 0 0-31.719949 2.092149l-15.320463-78.268505c24.471557-12.184593 36.05957-40.666299 27.049678-66.473396-9.009892-25.808274-35.807759-40.891046-62.544438-35.200588-26.73668 5.690458-45.070638 30.379702-42.790219 57.62118 2.283949 27.240302 24.468027 48.533628 51.780107 49.695018l15.227505 77.844898a234.696084 234.696084 0 0 0-104.767494 58.575473l-31.1975-28.837065c0.835448-2.776981 1.256702-5.659864 1.251995-8.563928-0.008237-16.885457-13.700165-30.566795-30.582092-30.566795-16.886634 0.00353-30.575032 13.695459-30.571502 30.582092 0 16.886634 13.689575 30.571502 30.575032 30.571502a32.032947 32.032947 0 0 0 10.958485-1.982717l31.197499 28.792351a233.461739 233.461739 0 0 0-46.861555 93.507778l-26.294245-4.804413c-3.085273-19.60478-19.853061-34.13451-39.699063-34.393381-19.846001-0.263578-36.991506 13.814304-40.593344 33.33554-3.605369 19.517705 7.38724 38.79066 26.018901 45.62721 18.630484 6.840081 39.482552-0.743666 49.362015-17.958595l26.403677 4.804413a240.758375 240.758375 0 0 0-1.802685 29.008862 234.073616 234.073616 0 0 0 28.486413 112.178268l-111.025114 68.87266c-18.619893-17.878581-47.254569-20.181357-68.494944-5.510425-21.243905 14.673286-29.221842 42.270123-19.092922 66.015665 10.132451 23.745541 35.578305 37.079757 60.86766 31.899982 25.292885-5.183306 43.44328-27.446222 43.419746-53.266263a52.786174 52.786174 0 0 0-2.513403-16.282993l111.076889-68.867953a248.416253 248.416253 0 0 0 26.133039 31.090421 236.816474 236.816474 0 0 0 80.350064 52.700275l-28.379334 86.610039c-19.8107 0.515389-36.372568 15.232212-39.210737 34.848759-2.838169 19.613017 8.868689 38.420004 27.721566 44.531715 18.854054 6.111712 39.367237-2.253355 48.575988-19.80364 9.208752-17.550285 4.430226-39.180143-11.312667-51.223534l28.279316-86.610038a233.360544 233.360544 0 0 0 60.106343 7.722596 229.065637 229.065637 0 0 0 26.927302-1.564994l2.189815 12.4164c-11.424453 8.402721-15.556977 23.563155-9.980658 36.598493 5.572789 13.040044 19.3918 20.521419 33.355543 18.065673 13.967273-2.455746 24.402133-14.200257 25.199926-28.35933 0.79544-14.154367-8.261519-26.995551-21.866372-30.99864l-2.188638-12.421107a234.974959 234.974959 0 0 0 104.535687-55.094833l64.594227 63.233977c-13.458945 23.578452-7.297812 53.488656 14.388527 69.82813 21.682809 16.335944 52.133113 14.013164 71.083655-5.42688 18.956426-19.441221 20.507299-49.940945 3.621842-71.203677-16.881927-21.262732-46.93804-26.663725-70.168192-12.607024l-64.595404-63.235153a234.019489 234.019489 0 0 0 57.311712-140.881192h83.387093c6.603567 18.688141 25.712962 29.903144 45.249495 26.54841 19.537709-3.350028 33.817981-20.289612 33.817981-40.107373 0-19.823644-14.280272-36.763229-33.817981-40.113256-19.536532-3.348851-38.644751 7.860268-45.249495 26.549587h-83.387093a233.760618 233.760618 0 0 0-56.45626-139.629197L823.774959 247.813789a39.630814 39.630814 0 0 0 18.268064 4.389042c18.02096-0.027064 33.872109-11.925722 38.933039-29.219488 5.06446-17.294944-1.872109-35.86071-17.034896-45.601324-15.163964-9.739437-34.92995-8.330943-48.553632 3.464166-13.627211 11.793933-17.855047 31.155139-10.392498 47.556977L677.501011 351.538739a238.567384 238.567384 0 0 0-32.561279-25.143446l34.642838-61.783122c2.302776 0.424784 4.644383 0.637764 6.98952 0.629528 19.204707 0.031771 35.823056-13.344806 39.894393-32.109432 4.076043-18.765803-5.499835-37.82813-22.985402-45.764883-17.485567-7.933223-38.137599-2.588711-49.577349 12.829417-11.44328 15.419305-10.571355 36.734988 2.093326 51.169406l-34.551057 61.874903z m0 0" p-id="15598"></path></svg>