<?xml version="1.0" standalone="no"?><!DOCTYPE svg PUBLIC "-//W3C//DTD SVG 1.1//EN" "http://www.w3.org/Graphics/SVG/1.1/DTD/svg11.dtd"><svg t="1547281003702" class="icon" style="" viewBox="0 0 1024 1024" version="1.1" xmlns="http://www.w3.org/2000/svg" p-id="22523" xmlns:xlink="http://www.w3.org/1999/xlink" width="200" height="200"><defs><style type="text/css"></style></defs><path d="M765.951388 664.150322c-39.002464-39.001287-85.473359-67.810112-136.176797-85.141534 78.649752-41.579408 132.376099-124.235779 132.376098-219.219121 0-136.636882-111.162787-247.798492-247.799669-247.798492s-247.799669 111.161611-247.799669 247.798492c0 94.982166 53.726347 177.639713 132.376099 219.219121-50.704615 17.331421-97.17551 46.13907-136.176797 85.141534-67.205295 67.205295-104.216805 156.559368-104.216805 251.600367h47.067476c0-166.057584 131.780695-301.891965 296.250928-308.475528 4.140761 0.207097 8.307409 0.314175 12.498768 0.314175s8.358007-0.107079 12.498769-0.314175c164.47141 6.583563 296.250928 142.417944 296.250928 308.475528h47.067476c0-95.041-37.011509-184.395073-104.216805-251.600367zM313.618827 359.790844c0-110.683876 90.048318-200.731017 200.732193-200.731017 110.683876 0 200.732193 90.047141 200.732194 200.731017 0 106.66196-83.625961 194.147454-188.755874 200.365067a365.168303 365.168303 0 0 0-11.97632-0.221217c-4.004265 0-7.993234 0.090605-11.976319 0.221217-105.128737-6.21879-188.755874-93.703107-188.755874-200.365067z" p-id="22524"></path></svg>