<?xml version="1.0" standalone="no"?><!DOCTYPE svg PUBLIC "-//W3C//DTD SVG 1.1//EN" "http://www.w3.org/Graphics/SVG/1.1/DTD/svg11.dtd"><svg t="1547280909787" class="icon" style="" viewBox="0 0 1024 1024" version="1.1" xmlns="http://www.w3.org/2000/svg" p-id="15931" xmlns:xlink="http://www.w3.org/1999/xlink" width="200" height="200"><defs><style type="text/css"></style></defs><path d="M511.270454 202.884354c-12.997683 0-23.533738-10.536054-23.533738-23.533738V133.553962c0-12.997683 10.536054-23.533738 23.533738-23.533738s23.533738 10.536054 23.533738 23.533738v45.796654c0 12.997683-10.536054 23.533738-23.533738 23.533738zM421.548079 907.813936c-62.449127 0-113.256113-50.806987-113.256114-113.256113 0-12.997683 10.536054-23.533738 23.533738-23.533738s23.533738 10.536054 23.533738 23.533738c0 36.497297 29.69134 66.188638 66.188638 66.188638s66.188638-29.69134 66.188637-66.188638V512c0-12.997683 10.536054-23.533738 23.533738-23.533738s23.533738 10.536054 23.533738 23.533738v282.557823c0 62.449127-50.806987 113.256113-113.256113 113.256113z" p-id="15932"></path><path d="M638.944512 521.265233c-7.506086 0-14.36617-3.587718-18.797573-9.6606-2.190991-2.796985-36.983269-45.636624-109.035338-45.636624-29.957272 0-56.512741 7.849678-78.93098 23.332524-15.624049 10.790219-23.208972 21.329803-23.278396 21.430999-4.558485 6.657694-12.079868 10.747858-20.142527 10.444272-8.027358-0.291818-15.218092-4.438463-19.291781-11.353851C367.472256 506.787277 339.276485 465.968009 268.885898 465.968009c-44.572899 0-92.344034 35.182938-106.990255 48.740724a23.529031 23.529031 0 0 1-25.410554 4.292554A23.533738 23.533738 0 0 1 122.375437 497.437323c0-52.120169 12.371686-100.950322 36.771465-145.133738 22.106417-40.030888 53.52984-75.367972 93.398345-105.032248 36.556132-27.199117 78.521493-48.473616 124.732341-63.230447 43.776282-13.980217 90.110682-21.369811 133.994043-21.369811s90.217761 7.389594 133.992866 21.369811c46.210848 14.758007 88.177386 36.032506 124.732341 63.230447 39.868505 29.664277 71.291929 65.001361 93.398345 105.032248C887.793786 396.487001 900.165472 445.317154 900.165472 497.437323a23.533738 23.533738 0 0 1-41.45115 15.258099c-0.400074-0.467145-40.778084-46.727413-97.94977-46.727413-67.760691 0-100.632616 42.424269-102.715352 45.20831-4.344328 6.243501-11.231476 10.001839-18.842287 10.087737l-0.262401 0.001177zM511.111601 418.900533c63.01276 0 105.093436 25.915352 127.462254 44.896489C660.14841 444.71822 700.481706 418.900533 760.764552 418.900533c34.736974 0 64.275345 11.62802 86.702997 24.928112C816.032359 297.885347 658.426917 209.737378 511.270454 209.737378c-148.610848 0-307.875418 89.882405-337.087847 238.420298 25.328185-14.849789 59.081449-29.257143 94.703291-29.257143 61.46424 0 100.204302 24.512741 121.132855 43.736275C411.635668 443.610958 451.235889 418.900533 511.111601 418.900533z" p-id="15933"></path></svg>