<?xml version="1.0" standalone="no"?><!DOCTYPE svg PUBLIC "-//W3C//DTD SVG 1.1//EN" "http://www.w3.org/Graphics/SVG/1.1/DTD/svg11.dtd"><svg t="1545724105561" class="icon" style="" viewBox="0 0 1024 1024" version="1.1" xmlns="http://www.w3.org/2000/svg" p-id="7945" xmlns:xlink="http://www.w3.org/1999/xlink" width="200" height="200"><defs><style type="text/css"></style></defs><path d="M779.04556 638.23497c10.010075-38.597683 7.78496-76.013973-6.430594-108.202243-13.593087-30.778599-37.298621-55.414892-68.554955-71.247215-28.629969-14.502666-59.044972-21.859312-88.071484-21.301563-6.136422 0.120022-11.664497 0.58599-16.494797 1.210811l-27.765103-62.586799c-5.271557-11.881008-19.176466-17.23964-31.056298-11.968082-11.881008 5.270381-17.238463 19.174113-11.968082 31.05512l35.499467 80.019415c5.042103 11.367972 18.062144 16.850156 29.712521 12.515242 0.36242-0.135319 37.829307-12.81059 88.873984 13.044751 21.445119 10.861997 37.616327 27.554477 46.766244 48.274756 9.8877 22.388821 11.246773 49.144328 3.926604 77.37187-14.929803 57.57176-84.974444 93.406582-85.636919 93.740761-11.197352 5.577496-16.073543 18.941129-11.100864 30.41971l46.482662 107.297371H314.128332l100.856187-256.052951 132.270197 64.303585a23.437249 23.437249 0 0 0 10.2713 2.374554c8.72631-0.001177 17.110204-4.875014 21.182717-13.250671 5.682221-11.689208 0.813091-25.77062-10.876117-31.454017L308.359037 497.653833l156.063982-155.680382a23.536091 23.536091 0 0 0-12.04339-39.74613L370.668138 286.029049c-14.978047-34.935834-19.481228-93.846663-8.426255-124.387571 11.83041-32.686008 68.936202-86.482956 147.347086-62.716234 29.950211 9.076963 50.111565 32.470675 59.92984 69.529251 5.373929 20.290789 6.22585 39.640228 6.183489 50.458688l-65.703842 58.282478c-9.722964 8.625115-10.613716 23.499614-1.988601 33.222578 8.625115 9.72414 23.497261 10.613716 33.222577 1.9886l73.251113-64.977826a23.533738 23.533738 0 0 0 7.828498-15.586395c0.123552-1.441441 2.92642-35.728921-6.918919-73.997132-13.879022-53.948741-45.74488-89.898878-92.152234-103.964993-60.081633-18.210406-107.162052-2.11333-136.079132 14.596801-32.17768 18.594006-58.686082 48.154734-69.178599 77.145946-11.212649 30.977459-9.473506 68.902078-7.439015 88.751608 3.355911 32.737783 11.991616 63.379886 23.692591 84.069572a23.532561 23.532561 0 0 0 15.908806 11.499761l49.796213 9.871226-148.243721 147.878949a23.533738 23.533738 0 0 0 6.330575 37.826953l114.498695 55.663173-114.858761 291.601839a23.533738 23.533738 0 0 0 21.896966 32.158853h124.26755l23.816142 59.247361c3.691267 9.182864 12.517595 14.761537 21.842839 14.761537 2.921714 0 5.894025-0.548336 8.769847-1.703842 12.059864-4.846773 17.905644-18.553999 13.057695-30.613863l-16.758375-41.691193h81.029013l-16.758375 41.691193c-4.84795 12.059864 0.999007 25.765913 13.057695 30.613863a23.470197 23.470197 0 0 0 8.769847 1.703842c9.32642 0 18.152749-5.579849 21.842839-14.761537l23.816142-59.247361H719.073359a23.533738 23.533738 0 0 0 21.594558-32.888399l-52.456702-121.089318c27.561537-17.84681 76.20342-56.304468 90.834345-112.732487z" p-id="7946"></path></svg>